<svg width="24" height="25" viewBox="0 0 24 25" fill="none" xmlns="http://www.w3.org/2000/svg">
<g id="Social icon" clip-path="url(#clip0_166_1047)">
<path id="path4" d="M20.8428 18.0495C20.5101 18.8181 20.1163 19.5256 19.66 20.1761C19.0381 21.0629 18.5288 21.6767 18.1364 22.0175C17.528 22.577 16.8762 22.8635 16.1782 22.8798C15.6771 22.8798 15.0728 22.7373 14.3693 22.448C13.6636 22.1601 13.015 22.0175 12.422 22.0175C11.8 22.0175 11.133 22.1601 10.4195 22.448C9.70493 22.7373 9.12928 22.888 8.68916 22.9029C8.01981 22.9314 7.35264 22.6368 6.68668 22.0175C6.26164 21.6468 5.72999 21.0113 5.09309 20.1109C4.40976 19.1495 3.84796 18.0346 3.40784 16.7635C2.93648 15.3906 2.7002 14.0611 2.7002 12.774C2.7002 11.2996 3.01878 10.028 3.65689 8.96241C4.1584 8.10648 4.82557 7.43129 5.66059 6.93562C6.49562 6.43996 7.39786 6.18737 8.36949 6.17121C8.90114 6.17121 9.59833 6.33567 10.4647 6.65887C11.3287 6.98315 11.8834 7.1476 12.1266 7.1476C12.3085 7.1476 12.9247 6.95531 13.9694 6.57196C14.9573 6.21643 15.7911 6.06923 16.4742 6.12722C18.3251 6.27659 19.7157 7.00624 20.6405 8.32077C18.9851 9.32377 18.1662 10.7286 18.1825 12.5308C18.1975 13.9345 18.7067 15.1027 19.7076 16.0302C20.1611 16.4607 20.6676 16.7934 21.2312 17.0296C21.109 17.3841 20.98 17.7236 20.8428 18.0495ZM16.5978 1.34494C16.5978 2.44519 16.1958 3.47249 15.3946 4.42335C14.4277 5.55374 13.2582 6.20693 11.99 6.10386C11.9738 5.97186 11.9645 5.83294 11.9645 5.68696C11.9645 4.63072 12.4243 3.50033 13.2408 2.57609C13.6485 2.10813 14.167 1.71902 14.7957 1.40863C15.4231 1.10287 16.0166 0.933772 16.5747 0.904816C16.591 1.0519 16.5978 1.199 16.5978 1.34493V1.34494Z" fill="black"/>
</g>
<defs>
<clipPath id="clip0_166_1047">
<rect width="24" height="24" fill="white" transform="translate(0 0.904572)"/>
</clipPath>
</defs>
</svg>
