<svg width="26" height="26" viewBox="0 0 26 26" fill="none" xmlns="http://www.w3.org/2000/svg">
<g id="wpf:audio-wave">
<path id="Vector" d="M18.813 2.03091C18.5938 2.07792 18.3982 2.20099 18.2609 2.37833C18.1237 2.55567 18.0536 2.77586 18.063 2.99991V21.9999C18.0408 22.1359 18.0483 22.275 18.0852 22.4077C18.122 22.5405 18.1873 22.6636 18.2765 22.7686C18.3657 22.8736 18.4766 22.9579 18.6017 23.0157C18.7267 23.0736 18.8628 23.1035 19.0005 23.1035C19.1383 23.1035 19.2744 23.0736 19.3994 23.0157C19.5244 22.9579 19.6354 22.8736 19.7246 22.7686C19.8137 22.6636 19.879 22.5405 19.9159 22.4077C19.9528 22.275 19.9603 22.1359 19.938 21.9999V2.99991C19.9412 2.86636 19.9162 2.73364 19.8646 2.61041C19.813 2.48719 19.736 2.37623 19.6386 2.28479C19.5412 2.19334 19.4256 2.12347 19.2994 2.07972C19.1732 2.03598 19.0391 2.01934 18.906 2.03091C18.8751 2.02939 18.844 2.02939 18.813 2.03091ZM6.81304 3.03091C6.59376 3.07792 6.39819 3.20099 6.26093 3.37833C6.12367 3.55567 6.05357 3.77586 6.06304 3.99991V20.9999C6.04076 21.1359 6.04832 21.275 6.08518 21.4077C6.12205 21.5405 6.18733 21.6636 6.27651 21.7686C6.3657 21.8736 6.47664 21.9579 6.60166 22.0157C6.72668 22.0736 6.86279 22.1035 7.00054 22.1035C7.13829 22.1035 7.27439 22.0736 7.39941 22.0157C7.52443 21.9579 7.63538 21.8736 7.72456 21.7686C7.81374 21.6636 7.87903 21.5405 7.91589 21.4077C7.95275 21.275 7.96031 21.1359 7.93804 20.9999V3.99991C7.94121 3.86636 7.91618 3.73364 7.86458 3.61041C7.81298 3.48719 7.73597 3.37623 7.63859 3.28479C7.5412 3.19334 7.42561 3.12347 7.29939 3.07972C7.17316 3.03598 7.03913 3.01934 6.90604 3.03091C6.87506 3.02939 6.84402 3.02939 6.81304 3.03091ZM15.813 6.03091C15.5938 6.07792 15.3982 6.20099 15.2609 6.37833C15.1237 6.55567 15.0536 6.77586 15.063 6.99991V17.9999C15.0403 18.136 15.0475 18.2755 15.0841 18.4085C15.1207 18.5416 15.1858 18.6651 15.275 18.7704C15.3642 18.8757 15.4753 18.9604 15.6005 19.0184C15.7257 19.0765 15.862 19.1065 16 19.1065C16.138 19.1065 16.2744 19.0765 16.3996 19.0184C16.5248 18.9604 16.6359 18.8757 16.725 18.7704C16.8142 18.6651 16.8794 18.5416 16.916 18.4085C16.9526 18.2755 16.9598 18.136 16.937 17.9999V6.99991C16.9402 6.86654 16.9152 6.734 16.8637 6.61093C16.8122 6.48785 16.7354 6.377 16.6383 6.28559C16.5411 6.19418 16.4258 6.12425 16.2998 6.08037C16.1738 6.03649 16.04 6.01964 15.907 6.03091C15.8754 6.02933 15.8447 6.02933 15.813 6.03091ZM3.81304 7.03091C3.59376 7.07792 3.39819 7.20099 3.26093 7.37833C3.12367 7.55567 3.05357 7.77586 3.06304 7.99991V16.9999C3.04028 17.136 3.04746 17.2755 3.08407 17.4085C3.12068 17.5416 3.18584 17.6651 3.27502 17.7704C3.3642 17.8757 3.47526 17.9604 3.60047 18.0184C3.72568 18.0765 3.86203 18.1065 4.00004 18.1065C4.13805 18.1065 4.2744 18.0765 4.39961 18.0184C4.52481 17.9604 4.63587 17.8757 4.72505 17.7704C4.81423 17.6651 4.87939 17.5416 4.916 17.4085C4.95261 17.2755 4.95979 17.136 4.93704 16.9999V7.99991C4.94018 7.86654 4.9152 7.734 4.86372 7.61093C4.81224 7.48785 4.73542 7.377 4.63825 7.28559C4.54108 7.19418 4.42575 7.12425 4.29977 7.08037C4.17378 7.03649 4.03997 7.01964 3.90704 7.03091C3.87539 7.02933 3.84468 7.02933 3.81304 7.03091ZM9.81304 8.03091C9.59376 8.07792 9.39819 8.20099 9.26093 8.37833C9.12367 8.55567 9.05357 8.77586 9.06304 8.99991V15.9999C9.04028 16.136 9.04746 16.2755 9.08407 16.4085C9.12068 16.5416 9.18584 16.6651 9.27502 16.7704C9.3642 16.8757 9.47526 16.9604 9.60047 17.0184C9.72568 17.0765 9.86203 17.1065 10 17.1065C10.138 17.1065 10.2744 17.0765 10.3996 17.0184C10.5248 16.9604 10.6359 16.8757 10.7251 16.7704C10.8142 16.6651 10.8794 16.5416 10.916 16.4085C10.9526 16.2755 10.9598 16.136 10.937 15.9999V8.99991C10.9402 8.86654 10.9152 8.734 10.8637 8.61093C10.8122 8.48785 10.7354 8.377 10.6383 8.28559C10.5411 8.19418 10.4258 8.12425 10.2998 8.08037C10.1738 8.03649 10.04 8.01964 9.90704 8.03091C9.87539 8.02933 9.84468 8.02933 9.81304 8.03091ZM21.813 8.03091C21.5938 8.07792 21.3982 8.20099 21.2609 8.37833C21.1237 8.55567 21.0536 8.77586 21.063 8.99991V15.9999C21.0408 16.1359 21.0483 16.275 21.0852 16.4077C21.122 16.5405 21.1873 16.6636 21.2765 16.7686C21.3657 16.8736 21.4766 16.9579 21.6017 17.0157C21.7267 17.0736 21.8628 17.1035 22.0005 17.1035C22.1383 17.1035 22.2744 17.0736 22.3994 17.0157C22.5244 16.9579 22.6354 16.8736 22.7246 16.7686C22.8137 16.6636 22.879 16.5405 22.9159 16.4077C22.9528 16.275 22.9603 16.1359 22.938 15.9999V8.99991C22.9412 8.86636 22.9162 8.73364 22.8646 8.61041C22.813 8.48719 22.736 8.37623 22.6386 8.28479C22.5412 8.19334 22.4256 8.12347 22.2994 8.07972C22.1732 8.03597 22.0391 8.01934 21.906 8.03091C21.8751 8.02939 21.844 8.02939 21.813 8.03091ZM0.813037 10.0309C0.593764 10.0779 0.398191 10.201 0.26093 10.3783C0.123669 10.5557 0.053569 10.7759 0.0630372 10.9999V13.9999C0.0407647 14.1359 0.0483213 14.275 0.085183 14.4077C0.122045 14.5405 0.18733 14.6636 0.276513 14.7686C0.365696 14.8736 0.476643 14.9579 0.601663 15.0157C0.726684 15.0736 0.862787 15.1035 1.00054 15.1035C1.13829 15.1035 1.27439 15.0736 1.39941 15.0157C1.52443 14.9579 1.63538 14.8736 1.72456 14.7686C1.81374 14.6636 1.87903 14.5405 1.91589 14.4077C1.95275 14.275 1.96031 14.1359 1.93804 13.9999V10.9999C1.94121 10.8664 1.91618 10.7336 1.86458 10.6104C1.81298 10.4872 1.73597 10.3762 1.63858 10.2848C1.5412 10.1933 1.42561 10.1235 1.29939 10.0797C1.17316 10.036 1.03913 10.0193 0.906037 10.0309C0.874723 10.0294 0.843351 10.0294 0.812037 10.0309H0.813037ZM12.813 10.0309C12.5938 10.0779 12.3982 10.201 12.2609 10.3783C12.1237 10.5557 12.0536 10.7759 12.063 10.9999V13.9999C12.0403 14.136 12.0475 14.2755 12.0841 14.4085C12.1207 14.5416 12.1858 14.6651 12.275 14.7704C12.3642 14.8757 12.4753 14.9604 12.6005 15.0184C12.7257 15.0765 12.862 15.1065 13 15.1065C13.138 15.1065 13.2744 15.0765 13.3996 15.0184C13.5248 14.9604 13.6359 14.8757 13.7251 14.7704C13.8142 14.6651 13.8794 14.5416 13.916 14.4085C13.9526 14.2755 13.9598 14.136 13.937 13.9999V10.9999C13.9402 10.8665 13.9152 10.734 13.8637 10.6109C13.8122 10.4879 13.7354 10.377 13.6383 10.2856C13.5411 10.1942 13.4258 10.1243 13.2998 10.0804C13.1738 10.0365 13.04 10.0196 12.907 10.0309C12.8754 10.0293 12.8447 10.0293 12.813 10.0309ZM24.813 10.0309C24.5938 10.0779 24.3982 10.201 24.2609 10.3783C24.1237 10.5557 24.0536 10.7759 24.063 10.9999V13.9999C24.0408 14.1359 24.0483 14.275 24.0852 14.4077C24.122 14.5405 24.1873 14.6636 24.2765 14.7686C24.3657 14.8736 24.4766 14.9579 24.6017 15.0157C24.7267 15.0736 24.8628 15.1035 25.0005 15.1035C25.1383 15.1035 25.2744 15.0736 25.3994 15.0157C25.5244 14.9579 25.6354 14.8736 25.7246 14.7686C25.8137 14.6636 25.879 14.5405 25.9159 14.4077C25.9528 14.275 25.9603 14.1359 25.938 13.9999V10.9999C25.9412 10.8664 25.9162 10.7336 25.8646 10.6104C25.813 10.4872 25.736 10.3762 25.6386 10.2848C25.5412 10.1933 25.4256 10.1235 25.2994 10.0797C25.1732 10.036 25.0391 10.0193 24.906 10.0309C24.8751 10.0294 24.844 10.0294 24.813 10.0309Z" fill="#667085"/>
</g>
</svg>
