<svg width="16" height="16" viewBox="0 0 16 16" fill="none" xmlns="http://www.w3.org/2000/svg">
<g id="heroicons-outline/bell-alert">
<path id="Vector" d="M9.90462 11.3878C11.1677 11.238 12.3856 10.941 13.5408 10.5146C12.5829 9.45134 11.9999 8.04376 11.9999 6.5V6.03279C12 6.02187 12 6.01094 12 6C12 3.79086 10.2092 2 8.00005 2C5.79091 2 4.00005 3.79086 4.00005 6L3.99992 6.5C3.99992 8.04376 3.4169 9.45134 2.45903 10.5146C3.61432 10.9411 4.83234 11.238 6.09547 11.3878M9.90462 11.3878C9.28004 11.4619 8.64443 11.5 7.99992 11.5C7.3555 11.5 6.71997 11.4619 6.09547 11.3878M9.90462 11.3878C9.96659 11.5807 10 11.7865 10 12C10 13.1046 9.10462 14 8.00005 14C6.89548 14 6.00005 13.1046 6.00005 12C6.00005 11.7865 6.03351 11.5808 6.09547 11.3878M2.08301 5C2.27453 3.85843 2.7884 2.82616 3.52784 2M12.4723 2C13.2117 2.82616 13.7256 3.85843 13.9171 5" stroke="#667085" stroke-width="1.5" stroke-linecap="round" stroke-linejoin="round"/>
</g>
</svg>
