<svg width="24" height="24" viewBox="0 0 24 24" fill="none" xmlns="http://www.w3.org/2000/svg">
<g id="heroicons-mini/calendar">
<path id="Subtract" fill-rule="evenodd" clip-rule="evenodd" d="M6.8999 2.3999C7.39696 2.3999 7.7999 2.80285 7.7999 3.2999V4.7999H16.1999V3.2999C16.1999 2.80285 16.6028 2.3999 17.0999 2.3999C17.597 2.3999 17.9999 2.80285 17.9999 3.2999V4.7999H18.2999C20.1224 4.7999 21.5999 6.27736 21.5999 8.0999V18.2999C21.5999 20.1224 20.1224 21.5999 18.2999 21.5999H5.6999C3.87736 21.5999 2.3999 20.1224 2.3999 18.2999V8.0999C2.3999 6.27736 3.87736 4.7999 5.6999 4.7999H5.9999V3.2999C5.9999 2.80285 6.40285 2.3999 6.8999 2.3999ZM5.6999 8.9999C4.87148 8.9999 4.1999 9.67148 4.1999 10.4999V18.2999C4.1999 19.1283 4.87148 19.7999 5.6999 19.7999H18.2999C19.1283 19.7999 19.7999 19.1283 19.7999 18.2999V10.4999C19.7999 9.67148 19.1283 8.9999 18.2999 8.9999H5.6999Z" fill="#525252"/>
</g>
</svg>
