<svg width="24" height="25" viewBox="0 0 24 25" fill="none" xmlns="http://www.w3.org/2000/svg">
<g id="heroicons-outline/eye-slash">
<path id="Vector" d="M3.9799 9.12711C3.05679 10.2184 2.35239 11.5005 1.93433 12.906C3.22562 17.2425 7.24308 20.4045 11.9991 20.4045C12.9916 20.4045 13.952 20.2668 14.8622 20.0094M6.2276 7.13217C7.88385 6.04012 9.86768 5.40454 11.9999 5.40454C16.7559 5.40454 20.7734 8.56659 22.0647 12.9031C21.3528 15.2964 19.8105 17.3322 17.772 18.6765M6.2276 7.13217L2.99997 3.90454M6.2276 7.13217L9.87865 10.7832M17.772 18.6765L21 21.9045M17.772 18.6765L14.1213 15.0259M14.1213 15.0259C14.6642 14.483 15 13.733 15 12.9045C15 11.2477 13.6568 9.90454 12 9.90454C11.1715 9.90454 10.4215 10.2403 9.87865 10.7832M14.1213 15.0259L9.87865 10.7832" stroke="#525252" stroke-width="1.5" stroke-linecap="round" stroke-linejoin="round"/>
</g>
</svg>
