<svg width="24" height="25" viewBox="0 0 24 25" fill="none" xmlns="http://www.w3.org/2000/svg">
<g id="heroicons-outline/eye">
<g id="Vector">
<path d="M2.03556 13.2269C1.96648 13.0197 1.96642 12.7953 2.03538 12.588C3.42374 8.41426 7.3608 5.40454 12.0008 5.40454C16.6387 5.40454 20.5742 8.41147 21.9643 12.5821C22.0334 12.7894 22.0335 13.0138 21.9645 13.2211C20.5762 17.3948 16.6391 20.4045 11.9991 20.4045C7.36121 20.4045 3.42565 17.3976 2.03556 13.2269Z" stroke="#525252" stroke-width="1.5" stroke-linecap="round" stroke-linejoin="round"/>
<path d="M15 12.9045C15 14.5614 13.6569 15.9045 12 15.9045C10.3432 15.9045 9.00001 14.5614 9.00001 12.9045C9.00001 11.2477 10.3432 9.90454 12 9.90454C13.6569 9.90454 15 11.2477 15 12.9045Z" stroke="#525252" stroke-width="1.5" stroke-linecap="round" stroke-linejoin="round"/>
</g>
</g>
</svg>
