<svg width="24" height="25" viewBox="0 0 24 25" fill="none" xmlns="http://www.w3.org/2000/svg">
<g id="Social icon" clip-path="url(#clip0_166_1042)">
<path id="Vector" d="M24 12.9046C24 6.27715 18.6274 0.904572 12 0.904572C5.37258 0.904572 0 6.27715 0 12.9046C0 18.894 4.3882 23.8586 10.125 24.7588V16.3733H7.07812V12.9046H10.125V10.2608C10.125 7.25332 11.9166 5.59207 14.6576 5.59207C15.9701 5.59207 17.3438 5.82645 17.3438 5.82645V8.77957H15.8306C14.34 8.77957 13.875 9.70465 13.875 10.6546V12.9046H17.2031L16.6711 16.3733H13.875V24.7588C19.6118 23.8586 24 18.894 24 12.9046Z" fill="#1877F2"/>
<path id="Vector_2" d="M16.6711 16.3733L17.2031 12.9046H13.875V10.6546C13.875 9.70559 14.34 8.77957 15.8306 8.77957H17.3438V5.82645C17.3438 5.82645 15.9705 5.59207 14.6576 5.59207C11.9166 5.59207 10.125 7.25332 10.125 10.2608V12.9046H7.07812V16.3733H10.125V24.7588C11.3674 24.9532 12.6326 24.9532 13.875 24.7588V16.3733H16.6711Z" fill="white"/>
</g>
<defs>
<clipPath id="clip0_166_1042">
<rect width="24" height="24" fill="white" transform="translate(0 0.904572)"/>
</clipPath>
</defs>
</svg>
