<svg width="25" height="25" viewBox="0 0 25 25" fill="none" xmlns="http://www.w3.org/2000/svg">
<g id="Social icon" clip-path="url(#clip0_166_1035)">
<path id="Vector" d="M24.2663 13.181C24.2663 12.3653 24.2001 11.5451 24.059 10.7426H12.7402V15.3636H19.222C18.953 16.854 18.0888 18.1724 16.8233 19.0101V22.0085H20.6903C22.9611 19.9185 24.2663 16.8319 24.2663 13.181Z" fill="#4285F4"/>
<path id="Vector_2" d="M12.74 24.9054C15.9764 24.9054 18.7058 23.8427 20.6944 22.0085L16.8274 19.0101C15.7516 19.7421 14.3626 20.1565 12.7444 20.1565C9.61376 20.1565 6.95934 18.0445 6.00693 15.2049H2.01648V18.2958C4.05359 22.348 8.20278 24.9054 12.74 24.9054Z" fill="#34A853"/>
<path id="Vector_3" d="M6.00277 15.2048C5.50011 13.7145 5.50011 12.1007 6.00277 10.6103V7.51938H2.01674C0.314734 10.9102 0.314734 14.905 2.01674 18.2958L6.00277 15.2048Z" fill="#FBBC04"/>
<path id="Vector_4" d="M12.74 5.65423C14.4508 5.62778 16.1043 6.27154 17.3433 7.45324L20.7694 4.02719C18.6 1.99008 15.7207 0.870106 12.74 0.90538C8.20277 0.90538 4.05359 3.46279 2.01648 7.51938L6.00252 10.6103C6.95052 7.7663 9.60935 5.65423 12.74 5.65423Z" fill="#EA4335"/>
</g>
<defs>
<clipPath id="clip0_166_1035">
<rect width="24" height="24" fill="white" transform="translate(0.5 0.904572)"/>
</clipPath>
</defs>
</svg>
