<svg width="25" height="24" viewBox="0 0 25 24" fill="none" xmlns="http://www.w3.org/2000/svg">
<g id="heroicons-solid/home">
<g id="Union">
<path d="M12.2697 3.84076C12.5626 3.54787 13.0375 3.54787 13.3304 3.84076L22.0197 12.5301C22.3126 12.823 22.7875 12.823 23.0804 12.5301C23.3733 12.2372 23.3733 11.7623 23.0804 11.4694L14.391 2.7801C13.5124 1.90142 12.0877 1.90142 11.2091 2.7801L2.51972 11.4694C2.22683 11.7623 2.22683 12.2372 2.51972 12.5301C2.81261 12.823 3.28749 12.823 3.58038 12.5301L12.2697 3.84076Z" fill="#525252"/>
<path d="M12.8 5.43176L20.9591 13.5908C20.9888 13.6205 21.0191 13.6492 21.05 13.6769V19.8748C21.05 20.9103 20.2106 21.7498 19.175 21.7498H15.8C15.3858 21.7498 15.05 21.414 15.05 20.9998V16.4998C15.05 16.0856 14.7143 15.7498 14.3 15.7498H11.3C10.8858 15.7498 10.55 16.0856 10.55 16.4998V20.9998C10.55 21.414 10.2143 21.7498 9.80005 21.7498H6.42505C5.38952 21.7498 4.55005 20.9103 4.55005 19.8748V13.6769C4.58098 13.6492 4.61132 13.6205 4.64104 13.5908L12.8 5.43176Z" fill="#525252"/>
</g>
</g>
</svg>
