<svg width="171" height="137" viewBox="0 0 171 137" fill="none" xmlns="http://www.w3.org/2000/svg">
<g id="Group 2">
<path id="Vector" d="M77.4593 41.4865C77.4777 41.1084 77.4685 40.7396 77.45 40.3707C77.3577 39.4486 77.1732 38.5357 77.0071 37.632C76.9055 37.0972 76.7948 36.5439 76.6933 36.0091C76.6471 35.7601 76.5918 35.5203 76.5456 35.2713C76.5087 35.1423 76.4902 35.0039 76.4533 34.8748C76.4533 34.8656 76.4533 34.838 76.4441 34.8287C76.4072 34.6812 76.3795 34.5152 76.3426 34.3492C76.0749 33.2058 75.7796 32.0716 75.4751 30.9466C74.866 28.6044 74.2292 26.2622 73.574 23.9384C72.8818 21.504 72.1804 19.088 71.4144 16.6813C70.6669 14.3483 69.9378 12.0153 69.218 9.6731C68.8673 8.55733 68.5166 7.43233 68.2213 6.2889C68.1382 5.98459 68.0736 5.67107 67.9998 5.35755C67.9536 5.13624 67.8983 4.88726 67.8983 4.65673C67.9075 4.36165 67.9906 4.08501 68.129 3.83604C66.2925 4.06657 64.4744 4.32477 62.6563 4.6014C59.3894 5.11779 56.1316 5.70796 52.9016 6.40877C48.5825 7.39545 44.3096 8.52966 40.1197 9.9774C37.2035 11.0471 34.3518 12.2735 31.5831 13.6751C30.8264 14.0716 30.0696 14.4774 29.3313 14.92C28.5007 15.4087 27.6978 15.9251 26.8949 16.4507C25.9075 17.1331 24.92 17.8524 23.9694 18.5901C23.0096 19.337 22.0775 20.1024 21.1547 20.8862L21.1454 20.8954C20.9608 21.089 20.7301 21.2827 20.5179 21.4579C18.7829 23.0347 17.1771 24.7407 15.6543 26.4927C14.0208 28.4384 12.4889 30.4578 11.0769 32.5695C10.0063 34.2755 9.00962 36.009 8.11443 37.8164C7.05312 40.0572 6.16716 42.3625 5.38272 44.7232C5.14277 45.5254 4.92128 46.3277 4.70902 47.1391C4.48753 47.9414 4.32141 48.7713 4.16452 49.6012C3.64771 52.469 3.28779 55.3461 3.12167 58.2692C3.08476 59.2743 3.0663 60.2702 3.07553 61.2753C3.07553 62.2528 3.14013 63.221 3.21396 64.1985C3.38008 65.8122 3.6108 67.4075 3.95226 68.9935C4.42293 70.9945 5.00434 72.9679 5.6965 74.9136C6.50863 77.0714 7.46842 79.1554 8.51126 81.2117C9.75715 83.5631 11.123 85.8777 12.6273 88.0816C14.0116 90.0641 15.5805 91.9268 17.1771 93.7342C18.4414 95.1266 19.7334 96.4729 21.1362 97.727C21.9668 98.437 22.8066 99.1379 23.6833 99.811C24.6154 100.521 25.5752 101.194 26.5535 101.84C28.833 103.334 31.1494 104.717 33.595 105.915C35.8745 107.004 38.2186 107.898 40.6089 108.7C40.6642 106.275 40.8211 101.203 41.1072 99.3868C41.1903 98.852 41.2826 98.2987 41.421 97.7731C41.6333 96.8971 42.0116 96.0026 42.8791 95.5969C43.3959 95.3664 43.9774 95.3387 44.5218 95.3203C45.0571 95.3018 45.5924 95.3203 46.1184 95.3295C47.4289 95.3848 48.7209 95.5047 50.0314 95.56C51.9325 95.643 53.8429 95.726 55.744 95.5692C56.2701 95.5231 56.7776 95.4401 57.3037 95.3295C57.6082 95.2557 57.9035 95.1819 58.1989 95.0713C58.5034 94.9514 58.7987 94.8315 59.0848 94.684C59.2325 94.601 59.3801 94.518 59.5278 94.4258C59.5924 94.3705 59.6755 94.3059 59.7493 94.2506C59.7954 94.2045 59.8416 94.1584 59.8785 94.1123C59.9062 94.0938 59.9246 94.0569 59.9431 94.0201C59.9708 93.9832 59.9892 93.9371 60.0169 93.9002C60.0631 93.7987 60.1092 93.6789 60.1461 93.5774C60.2015 93.393 60.2476 93.1901 60.2846 92.9965C60.4138 92.2404 60.4691 91.4658 60.506 90.6912C60.6352 87.6021 60.5245 84.4945 60.2753 81.4054C60.1923 80.4832 60.0907 79.5611 59.9062 78.6482C59.8323 78.3531 59.7493 78.0673 59.657 77.7722C59.6016 77.6339 59.537 77.4955 59.4817 77.3664C59.4355 77.2835 59.3894 77.2005 59.334 77.1175C59.334 77.1082 59.3248 77.099 59.3063 77.0806C59.2971 77.0714 59.2879 77.0529 59.2694 77.0437C59.2602 77.0345 59.2602 77.0345 59.2509 77.0345C59.2232 77.016 59.2048 76.9976 59.1771 76.9884C59.0387 76.933 58.9002 76.8685 58.7526 76.8224C57.7651 76.5089 56.7499 76.2599 55.7532 75.9464C54.572 75.5867 53.4184 75.1902 52.274 74.7476C49.9484 73.8624 47.7427 72.7189 45.7493 71.2527C44.7895 70.5427 43.8666 69.7681 43.0545 68.9198C42.1777 68.0345 41.421 67.0663 40.7288 66.0243C40.0551 65.0192 39.4922 63.9034 39.123 62.7599C39.0307 62.4556 38.9754 62.1513 38.9108 61.847C38.8646 61.5427 38.8185 61.2477 38.8185 60.9526C38.8185 60.4639 38.8739 59.9567 39.0769 59.5048C39.0769 59.4864 39.0861 59.468 39.0953 59.4495C39.1046 59.4311 39.123 59.4034 39.1323 59.3757C39.363 58.9147 39.6952 58.5182 40.1474 58.2415C40.5719 57.9833 41.0426 57.8727 41.5225 57.8081C42.6484 57.6883 43.7743 57.762 44.9002 57.845C47.0967 57.9926 49.2839 58.2969 51.4526 58.6657C52.7262 58.8778 53.9998 59.1083 55.2733 59.3112C56.4823 59.4864 57.7005 59.5971 58.9279 59.6708C60.2384 59.7262 61.5397 59.7354 62.8501 59.6616C62.8501 59.6524 62.8501 59.6247 62.8501 59.6155C62.8132 59.1729 62.7763 58.7303 62.7394 58.2876C62.6471 57.1719 62.5733 56.0469 62.5271 54.9219C62.4441 52.6811 62.4533 50.4311 62.5733 48.1903C62.6287 47.0377 62.6933 45.8113 63.0901 44.7047C63.2839 44.1422 63.6346 43.6904 64.0776 43.3031C64.6405 42.7959 65.4157 42.7682 66.1356 42.7406C68.3505 42.6945 70.5746 42.8051 72.7895 42.8328C73.6847 42.8328 74.5891 42.8236 75.4843 42.7498C75.9273 42.7037 76.361 42.6484 76.804 42.5469C77.0071 42.5008 77.2101 42.4363 77.4131 42.3809C77.45 42.0674 77.4593 41.7631 77.4685 41.4588L77.4593 41.4865ZM170.522 53.0684C170.734 54.8297 170.836 56.6001 170.799 58.3706C170.762 60.1596 170.587 61.9393 170.347 63.7097C170.097 65.4987 169.784 67.2784 169.415 69.0396C169.064 70.7456 168.667 72.4423 168.169 74.1113C167.652 75.8173 167.08 77.4771 166.461 79.1462C165.861 80.7322 165.225 82.3183 164.505 83.8582C163.803 85.3521 163.065 86.8182 162.225 88.2475C161.358 89.6953 160.417 91.1061 159.401 92.4432C157.334 95.1266 155.036 97.644 152.517 99.9032C150.606 101.618 148.548 103.214 146.426 104.689C146.416 104.689 146.407 104.689 146.407 104.698C146.398 104.698 146.398 104.698 146.398 104.698C146.361 104.717 146.343 104.744 146.306 104.772C146.297 104.772 146.278 104.781 146.269 104.791C146.213 104.837 146.149 104.873 146.084 104.92C145.374 105.408 144.635 105.888 143.888 106.358C143.085 106.856 142.236 107.299 141.387 107.741C139.855 108.525 138.258 109.18 136.671 109.816C135.084 110.443 133.496 111.052 131.872 111.605C130.34 112.131 128.78 112.582 127.202 113.007C125.643 113.412 124.055 113.754 122.477 114.104C120.917 114.445 119.349 114.796 117.77 115.091C116.229 115.386 114.66 115.625 113.101 115.81C112.325 115.902 111.55 115.976 110.775 116.04C110.766 116.04 110.738 116.04 110.729 116.04C110.692 116.05 110.646 116.05 110.609 116.05C110.6 116.05 110.581 116.059 110.581 116.059C110.332 116.068 110.092 116.096 109.861 116.114C108.929 116.197 107.997 116.271 107.065 116.336C105.256 116.474 103.447 116.566 101.639 116.732C100.577 116.824 99.4883 116.926 98.4547 117.156C98.3993 117.165 98.3347 117.175 98.2793 117.202C98.2424 117.239 98.2055 117.276 98.1778 117.304C98.0763 117.442 97.9655 117.58 97.864 117.728C96.8858 119.259 96.046 120.882 95.2523 122.514C94.5601 123.962 93.8957 125.418 93.2773 126.903C92.6867 128.286 92.133 129.706 91.5885 131.099C91.1363 132.251 90.7117 133.432 90.2042 134.566C89.9827 135.045 89.752 135.543 89.3274 135.885C89.0229 136.143 88.6722 136.244 88.303 136.244C88.1646 136.244 88.0077 136.226 87.8693 136.198C87.3709 136.106 86.9556 135.682 86.688 135.285C86.2912 134.686 85.9774 134.022 85.6267 133.395C85.2391 132.694 84.8699 131.993 84.51 131.292C83.7994 129.882 83.1995 128.434 82.655 126.958C81.8521 124.801 81.1508 122.597 80.5694 120.356C80.4217 119.757 80.274 119.166 80.1356 118.558C80.0156 118.014 79.9233 117.461 79.8126 116.916C79.8034 116.87 79.7849 116.824 79.7757 116.778C79.7203 116.778 79.6557 116.778 79.6003 116.778C78.8343 116.769 78.0684 116.76 77.3024 116.741C75.6135 116.704 73.9154 116.649 72.2266 116.621C70.5562 116.594 68.8765 116.594 67.1969 116.538C65.4711 116.483 63.7453 116.372 62.0103 116.243C58.5311 115.976 55.1072 115.367 51.6926 114.703C48.2964 114.049 44.9556 113.2 41.6702 112.186C40.0367 111.67 38.4124 111.116 36.8158 110.508C35.976 110.194 35.1362 109.871 34.3056 109.521C33.4843 109.18 32.6906 108.802 31.8969 108.414C30.4111 107.695 28.9806 106.875 27.5686 106.026C26.1289 105.159 24.7446 104.256 23.3788 103.306C21.976 102.328 20.6471 101.25 19.3643 100.143C18.0446 99.0088 16.8171 97.7916 15.6543 96.5006C13.3564 93.974 11.1507 91.3459 9.29571 88.4781C8.40052 87.0672 7.54225 85.6379 6.73012 84.1902C5.84416 82.641 5.07817 81.0457 4.33064 79.432C2.91864 76.3244 1.83888 73.0878 1.06366 69.7773C0.242303 66.2456 0.0300421 62.6032 0.103872 58.9885C0.150016 57.2549 0.297676 55.5028 0.509937 53.76C0.722198 51.9987 0.989832 50.2375 1.34052 48.4854C2.05114 44.9076 3.26011 41.4496 4.69056 38.1115C6.11179 34.7734 8.01291 31.6566 10.1171 28.7058C11.9351 26.1607 13.9655 23.8001 16.1434 21.5501C16.6418 21.0337 17.1586 20.5358 17.6662 20.0378C17.9246 19.7888 18.183 19.5583 18.4414 19.3278C18.5152 19.2724 18.5706 19.2079 18.626 19.1618C18.7552 19.0419 18.8844 18.9313 19.0136 18.8114C19.0597 18.7653 19.1059 18.7284 19.152 18.6823H19.1612C19.1797 18.6546 19.2074 18.6362 19.2443 18.6085C20.5179 17.4743 21.856 16.4139 23.2219 15.3995C24.7077 14.3022 26.2305 13.2878 27.8086 12.3565C30.9187 10.503 34.2595 9.01839 37.6372 7.71819C41.0334 6.42722 44.5219 5.4221 48.038 4.50919C51.4711 3.63317 54.9227 2.89547 58.4111 2.28686C60.1277 1.97334 61.8442 1.70593 63.5608 1.44773C65.305 1.18953 67.04 0.931338 68.775 0.72847C72.2635 0.322734 75.7796 0.0829815 79.2958 0.0276538C82.9504 -0.0276738 86.605 0.0184326 90.2411 0.14753C93.7757 0.276628 97.3288 0.424168 100.854 0.737692C104.426 1.05121 107.997 1.48461 111.541 2.06555C115.039 2.64649 118.536 3.36575 121.997 4.168C123.677 4.56452 125.356 4.97025 127.027 5.44976C128.79 5.94771 130.525 6.51021 132.241 7.11881C133.838 7.69053 135.416 8.33602 136.948 9.02761C138.526 9.74687 140.086 10.5122 141.581 11.3883C144.617 13.1495 147.542 15.086 150.2 17.3544C150.92 17.9722 151.64 18.5901 152.314 19.2356C152.96 19.8442 153.56 20.4712 154.169 21.0983C155.396 22.38 156.568 23.7079 157.722 25.0726C159.937 27.7283 161.865 30.6238 163.637 33.5839C165.437 36.5715 166.895 39.7437 168.058 43.0172C168.639 44.6309 169.156 46.2723 169.562 47.9229C169.987 49.6104 170.347 51.3256 170.54 53.05L170.522 53.0684ZM93.8587 3.28276C90.3241 3.13522 86.7711 2.9969 83.2272 2.98768C79.7018 2.97846 76.1672 3.04301 72.6419 3.33809C72.5034 3.34731 72.365 3.34731 72.2358 3.36575C71.6359 3.42108 71.0453 3.50407 70.4454 3.57784C70.7223 3.85448 70.8976 4.24177 70.8976 4.64751C70.9068 4.73972 70.9345 4.84116 70.953 4.93337C71.2299 6.10447 71.5713 7.22947 71.922 8.3729C72.3096 9.59011 72.6788 10.7981 73.0571 12.0245C73.8139 14.4682 74.6353 16.8934 75.3551 19.3462C76.0657 21.7253 76.721 24.1136 77.3762 26.5019C77.9945 28.7796 78.6221 31.0665 79.1666 33.3625C79.4342 34.506 79.6834 35.6586 79.9049 36.8113C80.0802 37.7795 80.274 38.7478 80.394 39.7252C80.4863 40.509 80.4771 41.2744 80.4309 42.0582C80.3848 42.6299 80.3755 43.2293 80.1817 43.7734C79.9879 44.3727 79.4434 44.76 78.8989 45.0182C78.3544 45.2764 77.7361 45.424 77.1455 45.5438C75.9919 45.7652 74.8014 45.8205 73.6293 45.8205C72.5219 45.8205 71.4144 45.7928 70.307 45.7744C69.1626 45.7559 68.0275 45.7283 66.9016 45.7283C66.5601 45.7283 66.2279 45.7283 65.8864 45.7467C65.8403 45.9219 65.7941 46.1063 65.748 46.2815C65.6095 47.1668 65.5634 48.0705 65.5265 48.9649C65.4342 51.1319 65.4434 53.3174 65.5542 55.4936C65.6003 56.5817 65.6834 57.6606 65.7757 58.7395C65.831 59.4956 65.951 60.2794 65.8126 61.0264C65.748 61.4229 65.4896 61.8563 65.1573 62.0868C64.9358 62.2343 64.742 62.3542 64.4836 62.4372C64.3452 62.4833 64.1883 62.511 64.0407 62.5386C63.7453 62.594 63.4408 62.6124 63.1455 62.6309C62.8686 62.6585 62.5825 62.6677 62.3057 62.677C61.2167 62.7138 60.1369 62.6954 59.0479 62.6585C57.0268 62.5755 55.0334 62.3081 53.0492 61.9669C49.976 61.4413 46.9029 60.9341 43.7928 60.7774C43.2021 60.7589 42.6023 60.7313 42.0024 60.7774C41.947 60.7774 41.8732 60.7866 41.8178 60.7958C41.8178 60.805 41.8086 60.8143 41.8086 60.8327C41.8086 60.888 41.8086 60.9526 41.8178 61.0079C41.8271 61.1462 41.8547 61.303 41.8917 61.4505C41.8917 61.4782 41.9009 61.5059 41.9009 61.5335C41.9101 61.5889 41.9378 61.6626 41.947 61.7179C41.9839 61.8563 42.0301 61.9946 42.0762 62.1237C42.2147 62.4925 42.3808 62.8614 42.5561 63.2118C42.8238 63.7282 43.1191 64.2169 43.4421 64.7056C43.8205 65.2313 44.2173 65.7384 44.6326 66.2364C45.1309 66.7896 45.657 67.2968 46.2107 67.7855C46.9582 68.4126 47.7242 68.9935 48.5364 69.5468C49.3762 70.0816 50.2437 70.5704 51.1296 71.0038C52.7539 71.7599 54.4151 72.3777 56.1132 72.9402C57.1468 73.263 58.1989 73.5488 59.2417 73.8531C59.7954 74.0191 60.3399 74.1851 60.829 74.4802C61.4566 74.8675 61.8996 75.4669 62.2134 76.1308C62.7394 77.2373 62.9609 78.4822 63.1085 79.6994C63.247 80.8521 63.33 82.0047 63.4039 83.1574C63.5515 85.4443 63.6069 87.7496 63.5238 90.0549C63.4869 91.2537 63.4316 92.4709 63.2101 93.642C63.1086 94.2137 62.9332 94.7762 62.6748 95.2834C62.3795 95.8551 61.9365 96.3162 61.4381 96.7127C60.9583 97.0815 60.4138 97.3582 59.86 97.5979C59.2786 97.8653 58.6603 98.0498 58.042 98.2065C56.9437 98.4647 55.7902 98.5569 54.655 98.603C53.6306 98.6399 52.597 98.603 51.5726 98.5661C50.2898 98.52 49.0163 98.4647 47.7427 98.3817C47.2074 98.3448 46.6721 98.3172 46.1277 98.2895C45.537 98.2711 44.9464 98.2434 44.365 98.2803C44.2727 98.5938 44.1988 98.9258 44.1435 99.2485C43.7928 101.222 43.6636 107.105 43.5713 109.106C43.5713 109.152 43.5713 109.198 43.5621 109.244C43.5621 109.364 43.5251 109.475 43.5067 109.595C44.9648 110.037 46.423 110.452 47.918 110.803C50.1791 111.338 52.4678 111.789 54.7565 112.214C56.6207 112.555 58.4942 112.859 60.3676 113.062C62.2318 113.274 64.1145 113.385 65.9972 113.486C68.9504 113.615 71.9036 113.578 74.8475 113.661C76.2411 113.698 77.6161 113.735 79.0005 113.754C79.4804 113.754 79.951 113.781 80.4309 113.763C80.634 113.754 80.8278 113.763 81.0308 113.809C81.3446 113.873 81.603 114.049 81.7968 114.288C82.1382 114.473 82.4151 114.777 82.5074 115.174C82.5535 115.367 82.572 115.579 82.6274 115.782C82.775 116.492 82.9042 117.202 83.0611 117.903C83.0611 117.912 83.0611 117.922 83.0703 117.922C83.6333 120.43 84.3808 122.892 85.2576 125.308C85.8297 126.885 86.4481 128.443 87.1956 129.946C87.5094 130.527 87.8231 131.108 88.1462 131.698C88.34 131.209 88.5338 130.721 88.7276 130.232C89.2628 128.858 89.7981 127.466 90.3887 126.092C91.0163 124.579 91.6992 123.085 92.3914 121.601C93.0835 120.162 93.7941 118.752 94.5878 117.387C95.2154 116.317 95.8522 115.054 97.015 114.482C97.3657 114.307 97.7625 114.215 98.1501 114.141C98.5377 114.076 98.9346 114.012 99.3222 113.956C100.383 113.818 101.454 113.726 102.534 113.643C103.955 113.541 105.395 113.449 106.816 113.339C107.48 113.283 108.136 113.237 108.791 113.191C109.114 113.173 109.446 113.136 109.778 113.108C110.009 113.09 110.267 113.053 110.517 113.034C110.572 113.034 110.618 113.025 110.683 113.025C112.685 112.85 114.688 112.592 116.672 112.232C117.9 112.002 119.109 111.743 120.336 111.485C120.345 111.181 120.382 110.877 120.419 110.591C120.484 110.074 120.558 109.567 120.613 109.051C120.797 107.594 120.936 106.137 121.01 104.661C121.13 102.006 121.111 99.3223 120.89 96.6573C120.89 96.602 120.881 96.5559 120.881 96.4914C120.871 96.436 120.871 96.3807 120.871 96.3254C120.797 95.6246 120.714 94.933 120.594 94.2506C120.585 94.2229 120.585 94.1953 120.567 94.1584C119.681 94.1492 118.795 94.1584 117.918 94.1676C116.811 94.1676 115.703 94.1676 114.596 94.186C112.27 94.2321 109.963 94.269 107.637 94.2321C106.447 94.2229 105.247 94.1768 104.057 94.0846C102.866 93.9832 101.666 93.8172 100.513 93.4576C99.8944 93.2547 99.2668 93.0057 98.6946 92.6738C98.1501 92.3695 97.6518 91.9914 97.2088 91.5395C96.8027 91.143 96.4428 90.7096 96.1198 90.2209C95.7322 89.6584 95.4646 88.9945 95.2431 88.3582C94.8555 87.2516 94.6801 86.0437 94.5786 84.8726C94.4771 83.7291 94.4402 82.5857 94.394 81.4422C94.311 79.1093 94.2464 76.7578 94.394 74.4249C94.4678 73.429 94.5786 72.4331 94.7816 71.4648C94.9939 70.4597 95.3077 69.4085 95.8706 68.5509C96.2029 68.053 96.5905 67.638 97.098 67.3153C97.4487 67.0847 97.8456 66.8911 98.2147 66.7067C99.0453 66.3194 99.8759 65.9505 100.679 65.5356C101.528 65.0929 102.349 64.6042 103.143 64.0694C103.706 63.6729 104.26 63.2671 104.786 62.8061C105.192 62.4372 105.588 62.0222 105.958 61.6073C106.401 61.0909 106.825 60.5561 107.204 60.0028C107.471 59.5694 107.72 59.1268 107.951 58.6749C108.182 58.1678 108.385 57.6698 108.56 57.1442C108.726 56.6463 108.846 56.1391 108.966 55.6135C109.059 55.0141 109.123 54.3963 109.16 53.7969C109.178 53.2805 109.178 52.7825 109.16 52.2662C109.132 52.0633 109.105 51.8604 109.068 51.6575C109.031 51.4916 108.985 51.344 108.939 51.178C108.459 51.3625 107.997 51.5838 107.527 51.8235C105.524 52.8563 103.65 54.0735 101.722 55.2262C100.743 55.8163 99.7006 56.3235 98.6208 56.6831C98.2793 56.7846 97.9471 56.8307 97.6056 56.8676C97.3103 56.886 96.9965 56.8307 96.7289 56.7292C96.4243 56.6001 96.1936 56.4065 95.9721 56.1575C95.603 55.7241 95.5384 55.0694 95.5384 54.5346C95.5384 53.5018 95.6768 52.4598 95.8337 51.4362C95.9998 50.3758 96.1567 49.3153 96.3413 48.2641C96.7104 45.9219 97.1442 43.5889 97.3288 41.2191C97.3472 40.9609 97.3657 40.6935 97.3749 40.4445C97.3934 40.0019 97.4118 39.5685 97.3841 39.1258C97.135 39.1719 96.8858 39.2273 96.6366 39.2642C96.1013 39.3564 95.5476 39.4394 95.0123 39.4947C93.748 39.633 92.4098 39.7437 91.1824 39.3471C90.4164 39.1074 89.715 38.6924 89.1613 38.1023C88.3584 37.2539 88.0631 36.092 88.2384 34.9578C88.423 33.7775 88.8568 32.6617 89.2905 31.5552C89.715 30.4671 90.1857 29.3974 90.6564 28.337C91.1547 27.2027 91.6715 26.0777 92.1883 24.9435C93.1943 22.7212 94.2556 20.5265 95.3169 18.3227C96.3782 16.0911 97.4672 13.8964 98.5377 11.6741C98.5562 11.6188 98.5931 11.5542 98.6208 11.4989C98.6392 11.4436 98.6669 11.3975 98.7038 11.3329C98.7131 11.296 98.7408 11.2684 98.75 11.2131C99.5344 9.57167 100.282 7.90262 101.039 6.24279C101.223 5.8555 101.408 5.44976 101.602 5.06247C101.805 4.63829 101.999 4.22333 102.22 3.82682C99.516 3.5594 96.775 3.37497 94.0526 3.24588H94.0433C93.9972 3.23666 93.9603 3.23666 93.9141 3.23666L93.8587 3.28276ZM101.463 12.421C101.445 12.4395 101.426 12.4671 101.417 12.4948C101.408 12.5133 101.399 12.5501 101.38 12.5778C101.362 12.6239 101.343 12.6608 101.325 12.7069C101.26 12.8637 101.186 13.002 101.113 13.1403C100.467 14.4589 99.8205 15.7776 99.1745 17.0962C97.0611 21.504 94.9477 25.921 92.9913 30.4025C92.4283 31.6843 91.8838 32.9753 91.4408 34.3123C91.3393 34.6535 91.2378 34.9763 91.1732 35.3267C91.164 35.4281 91.1455 35.5203 91.1363 35.631C91.1363 35.6771 91.1363 35.714 91.1363 35.7601C91.1363 35.797 91.1455 35.8338 91.1455 35.8615C91.1547 35.8707 91.1547 35.88 91.1547 35.8984C91.164 35.9261 91.1732 35.9537 91.1916 35.9814C91.2009 35.9906 91.2101 36.0183 91.2286 36.0275C91.2562 36.0644 91.2839 36.1013 91.3116 36.1474C91.3393 36.1566 91.3578 36.1843 91.3854 36.2027C91.4593 36.2488 91.5146 36.2949 91.57 36.341C91.6439 36.3871 91.6992 36.424 91.7546 36.4609C91.8284 36.4793 91.893 36.5162 91.9669 36.5439C92.0868 36.5808 92.2068 36.5992 92.3268 36.6361C92.5021 36.6545 92.659 36.673 92.8436 36.6914C93.2681 36.6914 93.6742 36.6822 94.0895 36.6453C95.1785 36.5439 96.249 36.3502 97.3195 36.1566C97.661 36.1013 98.0117 36.0644 98.3624 36.1105C99.0269 36.1935 99.5898 36.6084 99.9036 37.1986C100.273 37.8625 100.319 38.6556 100.347 39.4025C100.365 40.592 100.254 41.7908 100.125 42.9711C99.9959 44.1422 99.8205 45.3041 99.6267 46.466C99.3868 47.8307 99.1653 49.1955 98.953 50.5602C98.7961 51.5653 98.6392 52.552 98.547 53.5571C98.7777 53.4649 99.0176 53.3635 99.2483 53.2436C100.199 52.7364 101.094 52.1555 102.017 51.6022C102.977 51.0213 103.946 50.4403 104.924 49.8871C105.838 49.3707 106.77 48.8727 107.739 48.4947C108.209 48.3102 108.662 48.1442 109.151 48.1258C109.824 48.0889 110.443 48.3932 110.941 48.8451C111.421 49.2785 111.661 49.9424 111.827 50.551C111.993 51.1688 112.095 51.7866 112.132 52.4321C112.178 53.6678 112.113 54.9127 111.883 56.1391C111.449 58.5274 110.424 60.8235 108.92 62.7415C108.302 63.5438 107.628 64.3091 106.881 64.9823C106.133 65.6739 105.312 66.264 104.472 66.8358C103.595 67.4167 102.681 67.9239 101.749 68.3941C100.863 68.8368 99.9497 69.2241 99.0638 69.6667C98.9253 69.7497 98.7869 69.8327 98.6485 69.9157C98.6116 69.9341 98.5746 69.971 98.5377 69.9987C98.5193 70.0355 98.4824 70.054 98.4547 70.0909C98.4178 70.1277 98.3993 70.1646 98.3624 70.2107C98.307 70.3122 98.2424 70.4228 98.187 70.5243C98.0947 70.7456 98.0025 70.9577 97.9286 71.179C97.7994 71.5939 97.6979 72.0181 97.6148 72.4423C97.4487 73.4105 97.3564 74.388 97.3103 75.3654C97.2365 76.933 97.2642 78.5007 97.3103 80.0683C97.3564 81.5529 97.3841 83.0375 97.5041 84.5222C97.5595 85.223 97.6518 85.9238 97.8087 86.6062C97.8917 86.9566 97.984 87.307 98.104 87.6574C98.1963 87.8879 98.2978 88.1184 98.4085 88.3582C98.4916 88.515 98.5839 88.6717 98.6854 88.8285C98.7777 88.9576 98.87 89.0867 98.9807 89.1973C99.1653 89.391 99.3499 89.5846 99.5529 89.7598C99.6729 89.852 99.7928 89.9443 99.922 90.0365C100.051 90.1102 100.18 90.1932 100.319 90.2578C100.633 90.3961 100.965 90.5344 101.288 90.6635C101.74 90.7926 102.211 90.9033 102.672 90.9955C103.678 91.1615 104.693 91.226 105.708 91.2721C108.016 91.3736 110.341 91.3643 112.667 91.3182C114.854 91.2721 117.032 91.2537 119.219 91.2537C119.699 91.2537 120.179 91.2445 120.659 91.2537C121.25 91.2721 121.923 91.3367 122.394 91.7147C123.446 92.5723 123.585 94.0477 123.723 95.311C123.76 95.5692 123.778 95.8274 123.806 96.0764C123.815 96.0948 123.815 96.1317 123.815 96.1594C123.815 96.1778 123.815 96.1963 123.815 96.2055C123.852 96.5375 123.871 96.8787 123.898 97.2198C123.944 97.8469 123.981 98.4647 124.018 99.101C124.064 100.3 124.064 101.499 124.037 102.706C124.018 103.896 123.963 105.076 123.889 106.247C123.806 107.336 123.686 108.414 123.566 109.503C123.511 109.954 123.446 110.415 123.391 110.867C124.766 110.554 126.141 110.222 127.516 109.853C129.103 109.42 130.654 108.922 132.195 108.368C133.589 107.87 134.964 107.317 136.329 106.773C137.732 106.201 139.117 105.584 140.473 104.892C141.747 104.219 142.974 103.472 144.165 102.66C144.174 102.651 144.202 102.642 144.211 102.624C144.211 102.614 144.22 102.614 144.22 102.614H144.229C144.322 102.541 144.405 102.476 144.497 102.43C144.497 102.421 144.506 102.421 144.506 102.421C144.506 102.421 144.506 102.402 144.515 102.402C144.534 102.393 144.562 102.365 144.598 102.347C144.608 102.347 144.608 102.338 144.617 102.338C144.654 102.31 144.7 102.282 144.737 102.255C146.638 100.927 148.456 99.5252 150.2 98.0129C151.889 96.5006 153.486 94.8776 154.99 93.1717C156.319 91.6225 157.556 90.0088 158.7 88.3213C159.752 86.6707 160.693 84.9556 161.561 83.1943C162.871 80.391 163.97 77.514 164.92 74.5908C165.751 71.9351 166.378 69.2333 166.904 66.5038C167.329 64.1247 167.652 61.7456 167.8 59.3296C167.836 58.5643 167.846 57.7805 167.836 56.9967C167.827 56.2129 167.781 55.4383 167.707 54.6545C167.624 53.8061 167.523 52.967 167.393 52.1278C167.273 51.3809 167.117 50.6432 166.95 49.9147C166.498 47.9229 165.926 45.9496 165.234 44.0223C164.514 42.049 163.702 40.1125 162.77 38.2406C162.115 36.9957 161.432 35.7601 160.693 34.5429C159.946 33.2796 159.124 32.0623 158.312 30.8451C157.62 29.8492 156.928 28.8718 156.162 27.9312C155.331 26.9169 154.492 25.9394 153.633 24.962C152.12 23.2929 150.56 21.67 148.862 20.1853C147.099 18.6823 145.254 17.2806 143.316 15.9989C141.341 14.7264 139.329 13.5276 137.225 12.504C135.942 11.8954 134.659 11.3145 133.339 10.7797C131.937 10.2172 130.506 9.71921 129.066 9.2397C126.436 8.40057 123.778 7.69053 121.084 7.08193C118.278 6.43644 115.482 5.8555 112.658 5.32988C110.231 4.90571 107.794 4.57374 105.349 4.27866C105.349 4.2971 105.358 4.31554 105.358 4.33399C105.367 4.7305 105.21 5.12702 104.924 5.4221C104.841 5.50509 104.749 5.57886 104.656 5.63419C104.564 5.80939 104.481 5.98459 104.389 6.1598C103.401 8.24381 102.478 10.3739 101.482 12.4579V12.4671L101.463 12.421Z" fill="#0D544F"/>
<path id="Vector_2" d="M116.441 19.2909V19.3001C116.46 19.3278 116.488 19.3462 116.497 19.3739C116.598 19.5214 116.718 19.6505 116.829 19.7981C116.958 19.9272 117.087 20.0563 117.217 20.1854C117.337 20.2776 117.457 20.3698 117.586 20.462C117.687 20.5358 117.807 20.6003 117.937 20.6649C118.029 20.711 118.13 20.7571 118.241 20.794C118.407 20.8401 118.583 20.8862 118.749 20.9231C118.979 20.9599 119.201 20.9784 119.432 21.006C119.598 21.006 119.755 21.006 119.939 20.9968C120.068 20.9876 120.207 20.9599 120.336 20.9415C120.419 20.9231 120.502 20.8954 120.594 20.8677C120.687 20.8308 120.77 20.7847 120.862 20.7479C120.964 20.6925 121.074 20.628 121.176 20.5634C121.351 20.4343 121.508 20.3052 121.674 20.1761C121.905 19.964 122.117 19.7427 122.329 19.5214C122.532 19.2724 122.717 19.0143 122.902 18.7653C123.225 18.2212 123.52 17.6587 123.797 17.0962C124.637 15.2612 125.338 13.3708 125.966 11.462C126.058 11.1577 126.159 10.8442 126.242 10.5307C126.445 9.73766 127.267 9.24893 128.051 9.4518C128.845 9.64544 129.334 10.4661 129.14 11.2592C128.956 12.0245 128.688 12.7715 128.43 13.5184C128.042 14.6157 127.645 15.7223 127.193 16.7919C126.713 17.9446 126.187 19.0972 125.541 20.1669C124.867 21.2735 123.981 22.2694 122.902 22.9978C122.293 23.422 121.6 23.7355 120.871 23.8739C120.456 23.9569 120.031 23.9937 119.607 23.9937C119.349 23.9937 119.081 23.9845 118.813 23.9569C117.457 23.8278 116.165 23.2837 115.159 22.3616C114.9 22.131 114.651 21.8728 114.439 21.6147C114.263 21.4026 114.079 21.1813 113.931 20.9507C113.848 20.8308 113.765 20.711 113.701 20.5911C113.331 19.964 113.055 19.3001 112.824 18.5993C112.612 17.9261 112.464 17.2253 112.335 16.5337C112.215 15.9067 112.113 15.2889 112.049 14.6434C111.984 13.9426 111.929 13.2417 111.901 12.5317C111.864 11.7571 111.726 10.7428 112.344 10.1526C112.842 9.64544 113.728 9.52557 114.319 10.0051C114.623 10.2633 114.836 10.586 114.891 10.9917C114.928 11.1854 114.91 11.3883 114.873 11.5727C114.863 12.3473 114.928 13.1219 114.993 13.8964C115.085 14.8462 115.223 15.7591 115.426 16.6997C115.546 17.1608 115.666 17.6311 115.823 18.0921C115.915 18.3227 116.008 18.544 116.118 18.7745C116.22 18.9497 116.331 19.1341 116.441 19.3093V19.2909Z" fill="#0D544F"/>
<path id="Vector_3" d="M120.853 96.6942C121.074 99.35 121.084 102.033 120.973 104.698C120.899 106.164 120.761 107.631 120.576 109.088C120.521 109.604 120.447 110.111 120.382 110.628C120.345 110.923 120.308 111.218 120.299 111.522C119.072 111.78 117.863 112.038 116.635 112.269C114.651 112.629 112.658 112.887 110.646 113.062C110.591 113.062 110.544 113.071 110.48 113.071C110.231 113.08 109.981 113.117 109.741 113.145C109.4 113.173 109.077 113.2 108.754 113.228C108.099 113.274 107.444 113.32 106.779 113.376C105.358 113.486 103.918 113.578 102.497 113.68C101.426 113.763 100.356 113.855 99.2853 113.993C98.8977 114.049 98.5009 114.113 98.1132 114.178C97.7256 114.252 97.3288 114.344 96.9781 114.519C95.8061 115.091 95.1785 116.354 94.551 117.424C93.7573 118.788 93.0467 120.199 92.3545 121.638C91.6531 123.122 90.9794 124.607 90.3519 126.129C89.7705 127.503 89.2352 128.895 88.6907 130.269C88.4969 130.758 88.3031 131.246 88.1093 131.735C87.7955 131.154 87.4817 130.564 87.1587 129.983C86.4112 128.48 85.7929 126.912 85.2207 125.345C84.344 122.929 83.5964 120.467 83.0335 117.958C83.0242 117.958 83.0242 117.949 83.0242 117.94C82.8674 117.239 82.7474 116.529 82.5905 115.819C82.5443 115.626 82.5167 115.413 82.4705 115.211C82.3782 114.814 82.0921 114.51 81.7599 114.325C81.5569 114.095 81.3077 113.92 80.9939 113.846C80.7909 113.8 80.5971 113.79 80.3941 113.8C79.9142 113.809 79.4435 113.79 78.9636 113.79C77.5701 113.772 76.195 113.735 74.8107 113.698C71.8667 113.615 68.9227 113.652 65.9603 113.523C64.0868 113.431 62.2042 113.311 60.3307 113.099C58.4481 112.887 56.5839 112.592 54.7197 112.251C52.4309 111.826 50.1422 111.375 47.8812 110.84C46.3861 110.489 44.928 110.074 43.4698 109.632C43.4883 109.512 43.5252 109.401 43.5252 109.281C43.5344 109.235 43.5344 109.189 43.5344 109.143C43.6267 107.151 43.7559 101.259 44.1066 99.2854C44.162 98.9627 44.2358 98.6307 44.3281 98.3172C44.9095 98.2803 45.4909 98.308 46.0908 98.3264C46.6261 98.3541 47.1613 98.3817 47.7058 98.4186C48.9794 98.5016 50.253 98.5569 51.5357 98.603C52.5601 98.6399 53.5938 98.6768 54.6182 98.6399C55.7533 98.5938 56.9069 98.5016 58.0051 98.2434C58.6234 98.0959 59.2418 97.9022 59.8232 97.6348C60.3677 97.3858 60.9214 97.1184 61.4013 96.7496C61.8996 96.3531 62.3426 95.8828 62.6379 95.3203C62.8963 94.8039 63.0717 94.2506 63.1732 93.6789C63.3947 92.4986 63.4593 91.2906 63.487 90.0918C63.57 87.7957 63.5239 85.4812 63.367 83.1943C63.2932 82.0416 63.2193 80.889 63.0717 79.7363C62.924 78.5191 62.7025 77.2742 62.1765 76.1677C61.8627 75.5038 61.4197 74.8952 60.7922 74.5171C60.3031 74.2128 59.7586 74.056 59.2048 73.89C58.1712 73.5857 57.1191 73.3091 56.0763 72.9771C54.3874 72.4146 52.717 71.7968 51.0928 71.0407C50.2068 70.6073 49.3393 70.1185 48.4995 69.5837C47.6966 69.0304 46.9214 68.4495 46.1738 67.8224C45.6293 67.3337 45.1033 66.8173 44.5957 66.2733C44.1712 65.7845 43.7744 65.2682 43.4052 64.7425C43.0822 64.2538 42.7869 63.7651 42.5193 63.2487C42.3439 62.8983 42.1778 62.5387 42.0394 62.1606C41.9932 62.0315 41.9471 61.8932 41.9102 61.7549C41.9009 61.6995 41.8732 61.6257 41.864 61.5704C41.864 61.5428 41.8548 61.5151 41.8548 61.4874C41.8179 61.3399 41.7994 61.1831 41.781 61.0448C41.7717 60.9895 41.7717 60.9249 41.7717 60.8696C41.7717 60.8512 41.781 60.8419 41.781 60.8327C41.8363 60.8235 41.9102 60.8143 41.9655 60.8143C42.5654 60.7682 43.156 60.7958 43.7559 60.8143C46.866 60.9618 49.9392 61.4782 53.0123 62.0038C54.9965 62.345 56.9899 62.6124 59.011 62.6954C60.1 62.7415 61.1798 62.7507 62.2688 62.7139C62.5456 62.7046 62.8317 62.6954 63.1086 62.6678C63.4131 62.6493 63.7177 62.6309 64.0038 62.5755C64.1514 62.5387 64.3083 62.5202 64.4468 62.4741C64.7052 62.3911 64.899 62.2805 65.1205 62.1237C65.4527 61.8932 65.7019 61.4598 65.7757 61.0633C65.9141 60.3163 65.8034 59.5325 65.7388 58.7764C65.6465 57.7067 65.5634 56.6186 65.5173 55.5305C65.4066 53.3543 65.3973 51.1688 65.4896 49.0018C65.5265 48.1074 65.5727 47.2037 65.7111 46.3184C65.7572 46.1432 65.8034 45.9588 65.8495 45.7836C66.191 45.7652 66.5232 45.7652 66.8647 45.7652C67.9998 45.7652 69.1257 45.7836 70.2701 45.8113C71.3776 45.8389 72.485 45.8574 73.5925 45.8574C74.7553 45.8574 75.9458 45.8021 77.1086 45.5807C77.69 45.4609 78.3176 45.3133 78.8621 45.0551C79.4066 44.7969 79.9511 44.4004 80.1449 43.8103C80.3294 43.2662 80.3479 42.6668 80.3941 42.0951C80.4402 41.3113 80.4494 40.5459 80.3571 39.7621C80.2372 38.7847 80.0434 37.8164 79.868 36.8482C79.6465 35.6955 79.3973 34.5429 79.1297 33.3994C78.5944 31.1034 77.9669 28.8165 77.3393 26.5388C76.6841 24.1505 76.0289 21.7622 75.3182 19.3831C74.5984 16.9303 73.777 14.5051 73.0203 12.0614C72.6511 10.835 72.2727 9.62701 71.8851 8.4098C71.5344 7.26636 71.2022 6.13215 70.9161 4.97027C70.8884 4.87805 70.87 4.77662 70.8608 4.68441C70.8608 4.27867 70.6854 3.89138 70.4085 3.61474C71.0084 3.54097 71.5991 3.45798 72.1989 3.40265C72.3281 3.39343 72.4666 3.39343 72.605 3.37499C76.1304 3.07991 79.665 3.01536 83.1904 3.02458C86.7342 3.0338 90.2873 3.1629 93.8219 3.31966C93.868 3.31966 93.9049 3.31966 93.9511 3.32888H93.9603C96.692 3.45798 99.4237 3.6424 102.128 3.90982C101.906 4.30634 101.703 4.72129 101.509 5.14547C101.325 5.53277 101.14 5.9385 100.946 6.32579C100.19 7.98562 99.4422 9.64545 98.6577 11.2961C98.6485 11.3422 98.6208 11.3791 98.6116 11.4159C98.5747 11.4713 98.5562 11.5174 98.5285 11.5819C98.5101 11.6372 98.4732 11.7018 98.4455 11.7571C97.3749 13.9702 96.286 16.1741 95.2247 18.4057C94.1633 20.6095 93.102 22.8042 92.0961 25.0265C91.5793 26.1607 91.0717 27.2857 90.5641 28.42C90.0935 29.4804 89.6136 30.5501 89.1983 31.6382C88.7645 32.7447 88.34 33.8697 88.1462 35.0408C87.9709 36.1843 88.2662 37.3369 89.0691 38.1853C89.6136 38.7754 90.315 39.1904 91.0902 39.4302C92.3176 39.8267 93.6558 39.7252 94.9201 39.5777C95.4554 39.5224 96.0091 39.4394 96.5444 39.3472C96.7935 39.3103 97.0427 39.255 97.2919 39.2088C97.3103 39.6515 97.3011 40.0849 97.2827 40.5275C97.2734 40.7857 97.2642 41.0531 97.2365 41.3021C97.0427 43.6719 96.6182 46.0049 96.249 48.3471C96.0737 49.3983 95.9076 50.4588 95.7415 51.5192C95.5938 52.5428 95.4461 53.5848 95.4461 54.6176C95.4461 55.1524 95.5015 55.8071 95.8799 56.2405C96.1014 56.4895 96.3321 56.6832 96.6367 56.8123C96.9043 56.9229 97.2181 56.9782 97.5134 56.9506C97.8456 56.9137 98.1871 56.8676 98.5285 56.7661C99.6175 56.4065 100.651 55.8993 101.629 55.3092C103.558 54.1565 105.432 52.9393 107.434 51.9065C107.896 51.676 108.366 51.4547 108.846 51.261C108.892 51.427 108.939 51.5746 108.975 51.7406C109.012 51.9434 109.04 52.1463 109.068 52.3492C109.086 52.8655 109.086 53.3635 109.068 53.8799C109.031 54.4885 108.966 55.1063 108.874 55.6965C108.754 56.2221 108.625 56.72 108.468 57.2272C108.293 57.7528 108.099 58.2508 107.859 58.7579C107.628 59.2098 107.379 59.6524 107.111 60.0858C106.724 60.6483 106.308 61.1831 105.865 61.6903C105.505 62.1145 105.109 62.5202 104.693 62.8891C104.167 63.3409 103.604 63.7466 103.051 64.1524C102.257 64.6872 101.436 65.1759 100.587 65.6186C99.7837 66.0243 98.9531 66.4024 98.1225 66.7897C97.7533 66.9741 97.3565 67.1585 97.0058 67.3983C96.5074 67.721 96.1106 68.136 95.7784 68.6339C95.2154 69.5007 94.9016 70.5519 94.6894 71.5478C94.4956 72.5161 94.3756 73.5212 94.3018 74.5079C94.1541 76.8409 94.2187 79.1923 94.3018 81.5253C94.3479 82.6687 94.3848 83.8121 94.4864 84.9556C94.5879 86.1267 94.7632 87.3347 95.1508 88.4412C95.3723 89.0867 95.6399 89.7506 96.0276 90.3039C96.3413 90.7926 96.7013 91.226 97.1165 91.6225C97.5595 92.0652 98.0486 92.4525 98.6024 92.7568C99.1746 93.0795 99.8021 93.3377 100.42 93.5406C101.574 93.9002 102.774 94.0662 103.964 94.1676C105.155 94.2598 106.355 94.3059 107.545 94.3152C109.871 94.352 112.178 94.3152 114.504 94.2691C115.611 94.2506 116.718 94.2506 117.826 94.2506C118.703 94.2414 119.589 94.2322 120.475 94.2414C120.484 94.2783 120.484 94.3059 120.502 94.3336C120.631 95.016 120.714 95.7076 120.779 96.4084C120.779 96.4637 120.779 96.5098 120.788 96.5744C120.788 96.6297 120.798 96.6758 120.798 96.7404L120.853 96.6942Z" fill="#04C8B1"/>
<path id="Vector_4" d="M54.7103 19.8073C54.8302 19.6321 54.9318 19.4477 55.0425 19.2724C55.144 19.0511 55.2363 18.8206 55.3378 18.5993C55.4855 18.129 55.6147 17.6679 55.7347 17.1977C55.9377 16.2755 56.0761 15.3442 56.1684 14.3944C56.2238 13.629 56.2976 12.8452 56.2884 12.0706C56.2422 11.8862 56.233 11.6833 56.2607 11.4897C56.3161 11.084 56.5283 10.7704 56.8329 10.503C57.4143 10.0235 58.3003 10.1526 58.8078 10.6506C59.4262 11.2592 59.2877 12.2643 59.2508 13.0296C59.2139 13.7397 59.1678 14.4405 59.1032 15.1505C59.0478 15.7776 58.937 16.4139 58.8263 17.0225C58.6971 17.7233 58.5494 18.4241 58.3372 19.088C58.1065 19.7888 57.8388 20.4528 57.4604 21.0798C57.3866 21.1997 57.3128 21.3288 57.2297 21.4394C57.0913 21.6792 56.8975 21.9005 56.7314 22.1034C56.5007 22.3616 56.2607 22.6198 56.0023 22.8503C54.9964 23.7724 53.7043 24.3165 52.3477 24.4456C52.0801 24.4732 51.8124 24.4825 51.554 24.4825C51.1387 24.4825 50.7142 24.4456 50.2897 24.3626C49.5514 24.2335 48.8685 23.92 48.2594 23.4958C47.1888 22.7489 46.3029 21.7714 45.62 20.6556C44.9647 19.5952 44.4387 18.4425 43.9588 17.2807C43.5066 16.211 43.1097 15.1137 42.7221 14.0071C42.4637 13.2602 42.1961 12.5133 42.0115 11.7479C41.8177 10.9641 42.3068 10.1434 43.1005 9.94052C43.885 9.74687 44.7155 10.2356 44.9093 11.0286C44.9924 11.3422 45.0939 11.6557 45.1862 11.96C45.8138 13.878 46.5151 15.7591 47.355 17.5942C47.6318 18.1659 47.9271 18.7099 48.2501 19.2632C48.4347 19.5214 48.6193 19.7796 48.8223 20.0194C49.0346 20.2499 49.2469 20.462 49.4776 20.6741C49.6437 20.8032 49.8098 20.9415 49.9852 21.0614C50.0867 21.1351 50.1974 21.1905 50.2989 21.2458C50.3912 21.2919 50.4743 21.3288 50.5666 21.3657C50.6589 21.3841 50.7419 21.4118 50.825 21.4302C50.9542 21.4579 51.0926 21.4763 51.2218 21.4856C51.3972 21.4948 51.554 21.4948 51.7202 21.4948C51.9509 21.4763 52.1724 21.4487 52.4123 21.4118C52.5784 21.3749 52.7538 21.3288 52.9107 21.2827C53.0122 21.2458 53.1229 21.1997 53.2152 21.1628C53.3444 21.089 53.4552 21.0337 53.5659 20.9599C53.6951 20.8677 53.8243 20.7571 53.9351 20.6649C54.0643 20.5358 54.1935 20.4159 54.3227 20.2776C54.4426 20.1485 54.5534 20.0101 54.6641 19.8534C54.6734 19.8349 54.701 19.8073 54.7195 19.7796V19.7704L54.7103 19.8073Z" fill="#0D544F"/>
</g>
</svg>
