<svg width="13" height="13" viewBox="0 0 13 13" fill="none" xmlns="http://www.w3.org/2000/svg">
<g id="eva:mic-off-fill">
<path id="Vector" d="M8.54879 6.53869C8.68472 6.26601 8.75674 5.96595 8.75937 5.66129V3.15443C8.75383 2.65918 8.56522 2.18349 8.22987 1.819C7.89452 1.45452 7.43616 1.22702 6.94308 1.18032C6.45 1.13363 5.95708 1.27105 5.55928 1.56611C5.16147 1.86117 4.88692 2.29299 4.78852 2.77841L8.54879 6.53869ZM10.2635 5.66129C10.2635 5.52832 10.2107 5.40079 10.1166 5.30676C10.0226 5.21274 9.89508 5.15992 9.76211 5.15992C9.62914 5.15992 9.50161 5.21274 9.40759 5.30676C9.31356 5.40079 9.26074 5.52832 9.26074 5.66129C9.25928 6.09931 9.13977 6.52885 8.91479 6.90469L9.65181 7.66677C10.0553 7.07622 10.2687 6.37649 10.2635 5.66129ZM6.75389 7.66677H6.83411L4.74841 5.57605V5.66129C4.74841 6.19317 4.9597 6.70328 5.3358 7.07938C5.7119 7.45548 6.222 7.66677 6.75389 7.66677ZM11.1208 9.81765L3.0989 1.79572C3.05215 1.74897 2.99665 1.71189 2.93558 1.68659C2.8745 1.66129 2.80903 1.64827 2.74292 1.64827C2.67681 1.64827 2.61135 1.66129 2.55027 1.68659C2.48919 1.71189 2.4337 1.74897 2.38695 1.79572C2.29254 1.89013 2.2395 2.01818 2.2395 2.15169C2.2395 2.28521 2.29254 2.41326 2.38695 2.50767L10.4089 10.5296C10.4555 10.5766 10.5109 10.6139 10.572 10.6393C10.6331 10.6648 10.6987 10.6779 10.7649 10.6779C10.831 10.6779 10.8966 10.6648 10.9577 10.6393C11.0188 10.6139 11.0742 10.5766 11.1208 10.5296C11.1678 10.483 11.2051 10.4275 11.2306 10.3664C11.256 10.3053 11.2691 10.2398 11.2691 10.1736C11.2691 10.1074 11.256 10.0419 11.2306 9.98081C11.2051 9.91971 11.1678 9.86426 11.1208 9.81765Z" fill="white"/>
<path id="Vector_2" d="M8.2576 10.1734H7.25486V9.13052C7.53858 9.09103 7.81641 9.01694 8.08212 8.90992L7.27993 8.10773C7.10737 8.14807 6.93071 8.16826 6.75349 8.16789C6.08863 8.16789 5.451 7.90378 4.98088 7.43365C4.51075 6.96353 4.24664 6.3259 4.24664 5.66104C4.24664 5.52807 4.19381 5.40054 4.09979 5.30652C4.00576 5.21249 3.87824 5.15967 3.74527 5.15967C3.6123 5.15967 3.48477 5.21249 3.39074 5.30652C3.29672 5.40054 3.2439 5.52807 3.2439 5.66104C3.24488 6.50427 3.54944 7.31895 4.10183 7.95605C4.65423 8.59315 5.41754 9.01006 6.25212 9.13052V10.1734H5.24938C5.11641 10.1734 4.98888 10.2262 4.89486 10.3202C4.80083 10.4142 4.74801 10.5418 4.74801 10.6747C4.74801 10.8077 4.80083 10.9352 4.89486 11.0293C4.98888 11.1233 5.11641 11.1761 5.24938 11.1761H8.2576C8.39057 11.1761 8.5181 11.1233 8.61212 11.0293C8.70615 10.9352 8.75897 10.8077 8.75897 10.6747C8.75897 10.5418 8.70615 10.4142 8.61212 10.3202C8.5181 10.2262 8.39057 10.1734 8.2576 10.1734Z" fill="white"/>
</g>
</svg>
