<svg width="25" height="24" viewBox="0 0 25 24" fill="none" xmlns="http://www.w3.org/2000/svg">
<g id="physical therapy">
<path id="Vector" d="M3.40015 19.1331V15.7686C3.40015 14.5184 3.8353 13.4582 4.7056 12.5879C5.5759 11.7176 6.63612 11.2825 7.88625 11.2825H19.9146C20.3124 11.2825 20.6503 11.417 20.9285 11.6862C21.2059 11.9569 21.3445 12.2896 21.3445 12.6844C21.3445 13.0193 21.2462 13.3113 21.0496 13.5603C20.8522 13.81 20.5976 13.9809 20.2858 14.0728L17.0738 14.9375V19.1769C17.0738 19.4954 17.0027 19.784 16.8607 20.0427C16.7186 20.3014 16.5272 20.5145 16.2865 20.682C16.0427 20.8479 15.7762 20.9496 15.4868 20.987C15.1975 21.0244 14.8991 20.981 14.5918 20.8569L10.2291 19.1331H3.40015ZM15.9523 15.7686H9.21189C8.96665 15.7686 8.76477 15.8489 8.60627 16.0097C8.44701 16.1704 8.36514 16.3622 8.36065 16.585C8.35617 16.751 8.39916 16.9118 8.48963 17.0673C8.5801 17.2228 8.72403 17.3413 8.92141 17.4228L15.0034 19.8229C15.2337 19.9089 15.4494 19.8838 15.6506 19.7477C15.8524 19.6109 15.9534 19.4202 15.9534 19.1758L15.9523 15.7686ZM4.52167 18.0116H8.10607C7.85335 17.8561 7.64549 17.6565 7.4825 17.4127C7.32025 17.169 7.23913 16.9047 7.23913 16.6198C7.23913 16.08 7.43315 15.6164 7.8212 15.2291C8.20925 14.8418 8.67281 14.6474 9.21189 14.6459H13.6531L19.9987 12.9928C20.0922 12.9554 20.1576 12.9087 20.195 12.8526C20.2324 12.7965 20.2417 12.7311 20.223 12.6563C20.2043 12.5816 20.1714 12.5206 20.1243 12.4735C20.0772 12.4264 20.0073 12.4032 19.9146 12.404H7.88625C6.95164 12.404 6.15723 12.7311 5.50301 13.3853C4.84878 14.0395 4.52167 14.834 4.52167 15.7686V18.0116ZM10.1293 9.72915C9.20441 9.72915 8.41224 9.3998 7.75278 8.74109C7.09333 8.08238 6.76397 7.29021 6.76472 6.36458C6.76472 5.43969 7.09408 4.64752 7.75278 3.98806C8.41149 3.32861 9.20366 2.99925 10.1293 3C11.0549 3 11.8471 3.32936 12.5058 3.98806C13.1645 4.64677 13.4939 5.43894 13.4939 6.36458C13.4939 7.29021 13.1645 8.08238 12.5058 8.74109C11.8471 9.3998 11.0549 9.72915 10.1293 9.72915ZM10.1293 8.60763C10.7461 8.60763 11.2744 8.38818 11.714 7.94929C12.1536 7.5104 12.3731 6.98216 12.3723 6.36458C12.3723 5.74774 12.1529 5.21987 11.714 4.78098C11.2751 4.34209 10.7469 4.12227 10.1293 4.12153C9.51246 4.12153 8.98459 4.34134 8.5457 4.78098C8.10681 5.22062 7.88699 5.74849 7.88625 6.36458C7.88625 6.98141 8.10607 7.50965 8.5457 7.94929C8.98534 8.38893 9.51321 8.60837 10.1293 8.60763Z" fill="#363A44"/>
</g>
</svg>
