<svg width="25" height="24" viewBox="0 0 25 24" fill="none" xmlns="http://www.w3.org/2000/svg">
<g id="heroicons-solid/users">
<g id="Union">
<path d="M5.1001 6.375C5.1001 4.09683 6.94692 2.25 9.2251 2.25C11.5033 2.25 13.3501 4.09683 13.3501 6.375C13.3501 8.65317 11.5033 10.5 9.2251 10.5C6.94692 10.5 5.1001 8.65317 5.1001 6.375Z" fill="#136C66"/>
<path d="M14.8501 8.625C14.8501 6.76104 16.3611 5.25 18.2251 5.25C20.0891 5.25 21.6001 6.76104 21.6001 8.625C21.6001 10.489 20.0891 12 18.2251 12C16.3611 12 14.8501 10.489 14.8501 8.625Z" fill="#136C66"/>
<path d="M2.1001 19.125C2.1001 15.19 5.29007 12 9.2251 12C13.1601 12 16.3501 15.19 16.3501 19.125V19.1276C16.3501 19.1674 16.3497 19.2074 16.3491 19.2469C16.3447 19.5054 16.2075 19.7435 15.986 19.8768C14.0108 21.0661 11.6967 21.75 9.2251 21.75C6.75353 21.75 4.43939 21.0661 2.46416 19.8768C2.24266 19.7435 2.10547 19.5054 2.10112 19.2469C2.10044 19.2064 2.1001 19.1657 2.1001 19.125Z" fill="#136C66"/>
<path d="M17.8499 19.1281C17.8499 19.1762 17.8495 19.2244 17.8487 19.2722C17.843 19.6108 17.7613 19.9378 17.6158 20.232C17.8173 20.2439 18.0204 20.25 18.2249 20.25C19.8206 20.25 21.3321 19.8803 22.6765 19.2213C22.9235 19.1002 23.0844 18.8536 23.0958 18.5787C23.0985 18.5111 23.0999 18.4432 23.0999 18.375C23.0999 15.6826 20.9173 13.5 18.2249 13.5C17.4785 13.5 16.7712 13.6678 16.1388 13.9676C17.2136 15.4061 17.8499 17.1912 17.8499 19.125V19.1281Z" fill="#136C66"/>
</g>
</g>
</svg>
